<svg width="86" height="25" viewBox="0 0 86 25" fill="none" xmlns="http://www.w3.org/2000/svg">
<path d="M0.464 1.6H17.52V5.792H5.52V10.656H16.304V14.848H5.52V19.808H17.872V24H0.464V1.6Z" fill="#FF0000"/>
<path d="M19.919 12.576H28.175V15.84H19.919V12.576ZM38.4813 6.624C41.2546 6.624 43.3559 7.424 44.7853 9.024C46.2359 10.624 46.9613 12.8533 46.9613 15.712C46.9613 16.224 46.9506 16.6187 46.9293 16.896H34.5773C34.8546 17.984 35.3879 18.8373 36.1773 19.456C36.9666 20.0533 37.9159 20.352 39.0253 20.352C39.8359 20.352 40.6146 20.2027 41.3613 19.904C42.1079 19.584 42.7799 19.1253 43.3773 18.528L45.9693 21.152C45.0946 22.1333 44.0279 22.8907 42.7693 23.424C41.5319 23.936 40.1453 24.192 38.6093 24.192C36.7959 24.192 35.2066 23.8293 33.8413 23.104C32.4973 22.3787 31.4519 21.3547 30.7053 20.032C29.9799 18.7093 29.6173 17.184 29.6173 15.456C29.6173 13.7067 29.9906 12.1707 30.7373 10.848C31.4839 9.504 32.5293 8.46933 33.8733 7.744C35.2173 6.99733 36.7533 6.624 38.4813 6.624ZM42.3213 13.984C42.2786 12.8533 41.9159 11.9467 41.2333 11.264C40.5506 10.5813 39.6439 10.24 38.5133 10.24C37.4466 10.24 36.5506 10.5813 35.8253 11.264C35.1213 11.9253 34.6733 12.832 34.4813 13.984H42.3213ZM65.895 0.255999V24H60.999V21.472C60.3803 22.368 59.6123 23.0507 58.695 23.52C57.7777 23.968 56.7323 24.192 55.559 24.192C53.9377 24.192 52.5083 23.8293 51.271 23.104C50.055 22.3573 49.1057 21.312 48.423 19.968C47.7617 18.624 47.431 17.0773 47.431 15.328C47.431 13.6 47.7617 12.0747 48.423 10.752C49.0843 9.42933 50.023 8.40533 51.239 7.68C52.455 6.95467 53.8523 6.592 55.431 6.592C57.863 6.592 59.719 7.49867 60.999 9.312V0.255999H65.895ZM56.711 20.224C57.9697 20.224 58.9937 19.7867 59.783 18.912C60.5937 18.016 60.999 16.864 60.999 15.456C60.999 14.048 60.5937 12.9067 59.783 12.032C58.9937 11.136 57.9697 10.688 56.711 10.688C55.431 10.688 54.3857 11.136 53.575 12.032C52.7857 12.9067 52.3803 14.048 52.359 15.456C52.3803 16.864 52.7857 18.016 53.575 18.912C54.3857 19.7867 55.431 20.224 56.711 20.224ZM85.8812 6.784V24H80.9852V20.96C79.8119 23.1147 77.8919 24.192 75.2252 24.192C73.3266 24.192 71.8119 23.6053 70.6812 22.432C69.5719 21.2373 69.0172 19.6267 69.0172 17.6V6.784H73.9452V16.192C73.9452 17.28 74.2332 18.1333 74.8092 18.752C75.3852 19.3707 76.1746 19.68 77.1772 19.68C78.3506 19.6587 79.2786 19.2427 79.9612 18.432C80.6439 17.6213 80.9852 16.576 80.9852 15.296V6.784H85.8812Z" fill="black"/>
</svg>
