<svg width="50" height="50" viewBox="0 0 50 50" fill="none" xmlns="http://www.w3.org/2000/svg">
<g clip-path="url(#clip0_1_42)">
<path d="M30.4688 21.0938C35.207 21.0938 39.0625 17.2383 39.0625 12.5C39.0625 7.76172 35.207 3.90625 30.4688 3.90625C25.7305 3.90625 21.875 7.76172 21.875 12.5C21.875 17.2383 25.7305 21.0938 30.4688 21.0938ZM30.4688 5.46875C34.3453 5.46875 37.5 8.62266 37.5 12.5C37.5 16.3773 34.3453 19.5312 30.4688 19.5312C26.5922 19.5312 23.4375 16.3773 23.4375 12.5C23.4375 8.62266 26.5922 5.46875 30.4688 5.46875Z" fill="#FF0000"/>
<path d="M26.5625 8.11157V16.8897L35.3406 12.5006L26.5625 8.11157ZM28.125 10.6397L31.8469 12.5006L28.125 14.3616V10.6397Z" fill="#FF0000"/>
<path d="M45.3125 0.78125H15.625C13.4711 0.78125 11.7188 2.53359 11.7188 4.6875V19.9289L3.18984 24.5797C2.42734 24.9711 2.12422 25.9102 2.51406 26.6742L2.89297 27.418C2.54922 27.8313 2.34375 28.3484 2.34375 28.9062V33.0352C1.38437 33.5578 0.78125 34.943 0.78125 35.9375C0.78125 37.2297 1.83281 38.2812 3.125 38.2812C4.41719 38.2812 5.46875 37.2297 5.46875 35.9375C5.46875 34.943 4.86562 33.5578 3.90625 33.0352V28.9062C3.90625 28.8508 3.91563 28.7969 3.92656 28.7437C3.99141 28.775 4.05625 28.8078 4.12656 28.8305C4.28203 28.8813 4.44219 28.9062 4.60156 28.9062C4.84766 28.9062 5.09531 28.8461 5.33047 28.7258L5.78125 28.4797L7.22188 31.3727L7.82578 31.2281C7.84297 31.2242 7.9125 31.207 8.02187 31.1797C8.37266 32.4242 9.14609 33.475 10.1727 34.1844C6.96797 35.4336 4.6875 38.5461 4.6875 42.1875V49.2188H19.5312V45.0523L19.6094 45.1562C20.7836 46.7219 22.6531 47.6562 24.6094 47.6562C26.5656 47.6562 28.4352 46.7219 29.6094 45.1562L32.2305 41.6609C32.6055 41.1609 32.8125 40.5406 32.8125 39.9156V39.6281C32.8125 38.5125 32.1742 37.5531 31.25 37.0648V33.5938H45.3125C47.4664 33.5938 49.2188 31.8414 49.2188 29.6875V4.6875C49.2188 2.53359 47.4664 0.78125 45.3125 0.78125ZM13.2812 4.6875C13.2812 3.39531 14.3328 2.34375 15.625 2.34375H45.3125C46.6047 2.34375 47.6562 3.39531 47.6562 4.6875V22.6562H16.6656L16.6219 22.568L17.1227 22.2953C17.8852 21.9039 18.1883 20.9648 17.7984 20.2008L17.0938 18.818C16.9047 18.4461 16.582 18.1719 16.1859 18.0438C15.7898 17.9164 15.3687 17.9516 14.982 18.1492L13.2812 19.0766V4.6875ZM3.125 36.7188C2.69453 36.7188 2.34375 36.3688 2.34375 35.9375C2.34375 35.2969 2.875 34.4094 3.12266 34.375C3.375 34.4094 3.90625 35.2969 3.90625 35.9375C3.90625 36.3688 3.55547 36.7188 3.125 36.7188ZM4.61094 27.3469L3.92109 25.9609L15.7023 19.5289L16.4062 20.9109L4.61094 27.3469ZM7.15391 27.7312L15.2492 23.3172L16.218 25.2617C15.4492 25.9117 13.8234 27.2242 12.4016 27.9703C10.9953 28.7094 9.03516 29.2898 8.06172 29.5539L7.15391 27.7312ZM9.52969 30.7578C10.6078 30.4289 12.0023 29.9453 13.1273 29.3539C14.2336 28.7727 15.4109 27.9133 16.2969 27.2141C16.8656 27.9078 17.1875 28.7781 17.1875 29.6875C17.1875 31.8414 15.4352 33.5938 13.2812 33.5938C11.5078 33.5938 9.99766 32.4109 9.52969 30.7578ZM31.25 39.9156C31.25 40.2047 31.1539 40.4922 30.9805 40.7242L28.3594 44.2195C27.4789 45.393 26.0766 46.0938 24.6094 46.0938C23.1422 46.0938 21.7398 45.393 20.8594 44.2195L17.8125 40.157L16.5625 41.0938L17.9688 42.9688V47.6562H6.25V42.1875C6.25 38.3102 9.40469 35.1562 13.2812 35.1562H14.2023C16.7953 35.1562 19.2312 36.4242 20.7172 38.5484L23.8117 42.9688H25.3656L28.868 38.7664C29.125 38.4586 29.5023 38.2812 29.9031 38.2812C30.6461 38.2812 31.25 38.8852 31.25 39.6281V39.9156ZM29.6875 36.7422C28.9039 36.8008 28.175 37.1562 27.668 37.7656L24.6344 41.4062L21.9977 37.6523C21.9594 37.5977 21.9141 37.5508 21.875 37.4977V27.3438H29.6875V36.7422ZM45.3125 32.0312H31.25V28.9062H46.0938V27.3438H31.25V25.7812H20.3125V35.8281C19.2609 34.9469 18.032 34.3047 16.7094 33.9422C17.9523 32.9391 18.75 31.4055 18.75 29.6875C18.75 28.4125 18.2984 27.1922 17.5008 26.2211C17.6172 26.1195 17.6938 26.0523 17.7094 26.0383L18.1523 25.6414L17.4437 24.2188H47.6562V29.6875C47.6562 30.9797 46.6047 32.0312 45.3125 32.0312Z" fill="#FF0000"/>
<path d="M23.4375 32.0312H28.125V33.5938H23.4375V32.0312Z" fill="#FF0000"/>
<path d="M23.4375 35.1562H26.5625V36.7188H23.4375V35.1562Z" fill="#FF0000"/>
<path d="M23.4375 28.9062H28.125V30.4688H23.4375V28.9062Z" fill="#FF0000"/>
<path d="M14.8438 10.1562H16.4062V11.7188H14.8438V10.1562Z" fill="#FF0000"/>
<path d="M44.5312 19.5312H46.0938V21.0938H44.5312V19.5312Z" fill="#FF0000"/>
<path d="M44.5312 16.4062H46.0938V17.9688H44.5312V16.4062Z" fill="#FF0000"/>
<path d="M44.5312 13.2812H46.0938V14.8438H44.5312V13.2812Z" fill="#FF0000"/>
<path d="M16.4062 5.46875H22.6562V3.90625H16.4062C15.5445 3.90625 14.8438 4.60703 14.8438 5.46875V8.59375H16.4062V5.46875Z" fill="#FF0000"/>
</g>
<defs>
<clipPath id="clip0_1_42">
<rect width="50" height="50" fill="white"/>
</clipPath>
</defs>
</svg>
