<svg width="50" height="50" viewBox="0 0 50 50" fill="none" xmlns="http://www.w3.org/2000/svg">
<g clip-path="url(#clip0_1_26)">
<path d="M9.33291 49.8549H50L47.3565 41.3968C47.318 41.2741 47.2723 41.1554 47.229 41.0351H49.7114V5.75613H40.0898V5.79141C39.7683 5.5645 39.4347 5.35042 39.0811 5.16119C37.4222 2.05985 34.2359 0.143555 30.7024 0.143555H29.6665C25.4073 0.143555 21.5843 2.00933 18.94 4.95433H0V41.0351H12.1039C12.0606 41.1554 12.0149 41.2741 11.9764 41.3968L9.33291 49.8549ZM31.8473 48.2513H27.4856L28.1246 45.696L26.5034 43.2641L29.6665 40.4971L32.8295 43.2649L31.2083 45.6968L31.8473 48.2513ZM32.0718 17.7831C31.1875 17.7831 30.4682 18.5023 30.4682 19.3867H28.8647C28.8647 18.5023 28.1454 17.7831 27.2611 17.7831H22.4503C21.8594 17.7831 21.3478 18.1078 21.0696 18.5849H20.0449V14.8661C22.9947 15.7377 26.0431 16.1795 29.1244 16.1795H30.2085C33.2898 16.1795 36.339 15.7377 39.288 14.8661V18.5849H38.2633C37.9851 18.1078 37.4735 17.7831 36.8826 17.7831H32.0718ZM36.8826 19.3867V20.9902C36.8826 21.8746 36.1634 22.5938 35.279 22.5938H33.6754C32.791 22.5938 32.0718 21.8746 32.0718 20.9902V19.3867H36.8826ZM27.2611 19.3867V20.9902C27.2611 21.8746 26.5419 22.5938 25.6575 22.5938H24.0539C23.1695 22.5938 22.4503 21.8746 22.4503 20.9902V19.3867H27.2611ZM20.8467 20.1885V20.9902C20.8467 22.759 22.2851 24.1974 24.0539 24.1974H25.6575C27.4262 24.1974 28.8647 22.759 28.8647 20.9902H30.4682C30.4682 22.759 31.9067 24.1974 33.6754 24.1974H35.279C37.0478 24.1974 38.4862 22.759 38.4862 20.9902V20.1885H39.288V23.3956C39.288 28.7011 34.9719 33.0172 29.6665 33.0172C24.361 33.0172 20.0449 28.7011 20.0449 23.3956V20.1885H20.8467ZM34.7571 35.4747L36.8105 35.7906L35.5268 43.4935L30.8395 39.3923L34.7571 35.4747ZM29.6665 38.2978L25.6575 34.2888V33.8679C26.9043 34.3474 28.2529 34.6208 29.6665 34.6208C31.08 34.6208 32.4286 34.3474 33.6754 33.8679V34.2888L29.6665 38.2978ZM28.4934 39.3923L23.8061 43.4935L22.5224 35.7906L24.5758 35.4747L28.4934 39.3923ZM47.8191 48.2513H41.5996L40.8852 42.5393L39.2944 42.7382L39.9832 48.2513H33.499L32.9354 45.9959L34.0467 44.3297L36.6357 46.5948L38.3956 36.0351L39.1758 36.1554C42.2795 36.6333 44.8902 38.8783 45.8275 41.8754L47.8191 48.2513ZM48.1078 7.35972V39.4316H46.5042V39.4508C45.0241 36.8722 42.4142 35.0313 39.4195 34.5703L35.279 33.9328V33.1022C37.9771 31.5363 39.9679 28.8855 40.6398 25.7457C42.5882 25.4739 44.0988 23.8142 44.0988 21.792V13.54C44.0988 11.2132 43.2553 9.0483 41.8024 7.35972H48.1078ZM40.8579 24.0603C40.8708 23.839 40.8916 23.6201 40.8916 23.3956V19.5342C41.8225 19.8661 42.4952 20.7481 42.4952 21.792C42.4952 22.848 41.8064 23.738 40.8579 24.0603ZM29.6665 1.74715H30.7024C33.7139 1.74715 36.4216 3.42049 37.7686 6.11453L37.8881 6.35346L38.127 6.47293C40.8218 7.82075 42.4952 10.5284 42.4952 13.54V18.6057C42.0269 18.2513 41.4873 17.9859 40.8916 17.8648V12.662L39.8364 13.014C36.7255 14.0507 33.4862 14.5759 30.2085 14.5759H29.1244C25.8467 14.5759 22.6074 14.0507 19.4965 13.014L18.4413 12.6612V17.864C17.8456 17.9859 17.306 18.2505 16.8377 18.6049V14.5759C16.8377 7.50244 22.593 1.74715 29.6665 1.74715ZM18.475 24.0603C17.5265 23.738 16.8377 22.848 16.8377 21.792C16.8377 20.7481 17.5104 19.8661 18.4413 19.5342V23.3956C18.4413 23.6201 18.4622 23.839 18.475 24.0603ZM1.60359 39.4316V6.55792H17.6748C16.1353 8.85266 15.2341 11.6108 15.2341 14.5759V21.792C15.2341 23.8142 16.7447 25.4739 18.6931 25.7457C19.365 28.8855 21.3558 31.5363 24.0539 33.1022V33.9328L19.9134 34.5695C16.9187 35.0305 14.3089 36.8714 12.8287 39.45V39.4316H1.60359ZM13.5063 41.8746C14.4436 38.8783 17.0542 36.6325 20.158 36.1546L20.9381 36.0343L22.698 46.594L25.287 44.3289L26.3983 45.9951L25.8339 48.2513H19.3497L20.0385 42.7382L18.4477 42.5393L17.7333 48.2513H11.5138L13.5063 41.8746Z" fill="#FF0000"/>
<path d="M6.4144 12.9724V14.576H7.21619V19.3868H8.81979V12.9724H6.4144Z" fill="#FF0000"/>
<path d="M12.8287 21.792H3.20715V23.3956H12.8287V21.792Z" fill="#FF0000"/>
<path d="M10.4233 27.5428V27.4049C10.4233 26.0787 9.34408 24.9995 8.01791 24.9995C6.69174 24.9995 5.61252 26.0787 5.61252 27.4049H7.21611C7.21611 26.9623 7.57531 26.6031 8.01791 26.6031C8.4605 26.6031 8.8197 26.9623 8.8197 27.4049V27.5428C8.8197 27.7537 8.73471 27.9605 8.58478 28.1097L5.61252 31.0819V33.0174H10.4233V31.4139H7.54805L9.71852 29.2434C10.1731 28.7896 10.4233 28.185 10.4233 27.5428Z" fill="#FF0000"/>
</g>
<defs>
<clipPath id="clip0_1_26">
<rect width="50" height="50" fill="white"/>
</clipPath>
</defs>
</svg>
