<svg width="50" height="50" viewBox="0 0 50 50" fill="none" xmlns="http://www.w3.org/2000/svg">
<g clip-path="url(#clip0_1_39)">
<path d="M19.0439 25.8621C18.6395 25.8621 18.3115 26.19 18.3115 26.5945V28.3917H13.1357V23.2159H15.5762C15.9807 23.2159 16.3086 22.888 16.3086 22.4835C16.3086 22.079 15.9807 21.7511 15.5762 21.7511H13.0869C12.3062 21.7511 11.6709 22.3863 11.6709 23.1671V28.4405C11.6709 29.2213 12.3062 29.8565 13.0869 29.8565H18.3604C19.1411 29.8565 19.7764 29.2213 19.7764 28.4405V26.5945C19.7764 26.19 19.4484 25.8621 19.0439 25.8621ZM16.0654 3.66211C16.0654 3.25762 15.7375 2.92969 15.333 2.92969C14.9285 2.92969 14.6006 3.25762 14.6006 3.66211C14.6006 4.0666 14.9285 4.39453 15.333 4.39453C15.7375 4.39453 16.0654 4.0666 16.0654 3.66211ZM12.4033 2.92969C11.9988 2.92969 11.6709 3.25762 11.6709 3.66211C11.6709 4.0666 11.9988 4.39453 12.4033 4.39453C12.8078 4.39453 13.1357 4.0666 13.1357 3.66211C13.1357 3.25762 12.8078 2.92969 12.4033 2.92969ZM15.2404 24.4169C14.9544 24.1309 14.4906 24.1309 14.2047 24.4169C13.9187 24.7029 13.9187 25.1667 14.2047 25.4526L15.277 26.5249C15.4769 26.7247 15.7394 26.8246 16.002 26.8246C16.2646 26.8246 16.5271 26.7246 16.727 26.5248L19.3912 23.8605C19.6772 23.5745 19.6772 23.1107 19.3912 22.8248C19.1052 22.5388 18.6414 22.5388 18.3555 22.8248L16.002 25.1783L15.2404 24.4169ZM49.2676 27.1523C49.6722 27.1523 50 26.8244 50 26.4199V7.86523C50 5.8459 48.3572 4.20312 46.3379 4.20312H41.2588V1.9043C41.2588 0.854297 40.4045 0 39.3545 0H10.6455C9.59551 0 8.74121 0.854297 8.74121 1.9043V4.20312H3.66211C1.64277 4.20312 0 5.8459 0 7.86523V35.4453C0 37.4646 1.64277 39.1074 3.66211 39.1074H20.7894L20.2315 43.2534H19.4154C18.7378 43.2534 18.138 43.7095 17.9568 44.3625L16.9253 48.0817C16.7978 48.5414 16.8903 49.0229 17.179 49.4024C17.4678 49.7821 17.9069 49.9999 18.3839 49.9999H31.616C32.0931 49.9999 32.5323 49.7821 32.821 49.4024C33.1097 49.0228 33.2021 48.5413 33.0747 48.0817L32.0432 44.3626C31.8621 43.7095 31.2624 43.2533 30.5845 43.2533H29.7684L29.2105 39.1073H46.3379C48.3572 39.1073 50 37.4646 50 35.4452V29.8378C50 29.4333 49.6722 29.1054 49.2676 29.1054C48.863 29.1054 48.5352 29.4333 48.5352 29.8378V35.4452C48.5352 36.6568 47.5494 37.6425 46.3379 37.6425H3.66211C2.45049 37.6425 1.46484 36.6568 1.46484 35.4452V7.86523C1.46484 6.65361 2.45049 5.66797 3.66211 5.66797H8.74121V7.13281H4.05273C3.4335 7.13281 2.92969 7.63662 2.92969 8.25586V33.5898C2.92969 34.2091 3.4335 34.7129 4.05273 34.7129H45.9473C46.5665 34.7129 47.0703 34.2091 47.0703 33.5898V8.25586C47.0703 7.63662 46.5665 7.13281 45.9473 7.13281H41.2588V5.66797H46.3379C47.5494 5.66797 48.5352 6.65361 48.5352 7.86523V26.4199C48.5352 26.8244 48.863 27.1523 49.2676 27.1523ZM30.5846 44.7183C30.6064 44.7183 30.6258 44.7329 30.6315 44.7539V44.754L31.6631 48.4733C31.6724 48.497 31.6414 48.5379 31.616 48.5352H18.3839C18.3587 48.5379 18.3273 48.4972 18.3368 48.4732L19.3684 44.754C19.3742 44.7329 19.3936 44.7182 19.4154 44.7182H30.5846V44.7183ZM22.2675 39.1074H27.7326L28.2904 43.2534H21.7096L22.2675 39.1074ZM8.74121 33.248H4.39453V8.59766H8.74121V33.248ZM39.7939 5.85937H18.3562C17.9517 5.85937 17.6237 6.1873 17.6237 6.5918C17.6237 6.99629 17.9517 7.32422 18.3562 7.32422H39.7939V33.248H10.2061V7.32422H14.9382C15.3427 7.32422 15.6706 6.99629 15.6706 6.5918C15.6706 6.1873 15.3427 5.85937 14.9382 5.85937H10.2061V1.9043C10.2061 1.66201 10.4032 1.46484 10.6455 1.46484H39.3545C39.5968 1.46484 39.7939 1.66201 39.7939 1.9043V5.85937ZM45.6055 8.59766V33.248H41.2588V8.59766H45.6055ZM15.2404 13.3817C14.9544 13.0957 14.4906 13.0957 14.2047 13.3817C13.9187 13.6678 13.9187 14.1315 14.2047 14.4175L15.277 15.4897C15.4769 15.6896 15.7394 15.7895 16.002 15.7895C16.2646 15.7895 16.5271 15.6895 16.727 15.4896L19.3912 12.8254C19.6772 12.5394 19.6772 12.0756 19.3912 11.7896C19.1052 11.5036 18.6414 11.5036 18.3555 11.7896L16.002 14.1432L15.2404 13.3817ZM18.2627 2.92969C17.8582 2.92969 17.5303 3.25762 17.5303 3.66211C17.5303 4.0666 17.8582 4.39453 18.2627 4.39453C18.6672 4.39453 18.9951 4.0666 18.9951 3.66211C18.9951 3.25762 18.6672 2.92969 18.2627 2.92969ZM19.0439 14.827C18.6395 14.827 18.3115 15.1549 18.3115 15.5594V17.3565H13.1357V12.1808H15.5762C15.9807 12.1808 16.3086 11.8528 16.3086 11.4483C16.3086 11.0438 15.9807 10.7159 15.5762 10.7159H13.0869C12.3062 10.7159 11.6709 11.3512 11.6709 12.1319V17.4054C11.6709 18.1861 12.3062 18.8214 13.0869 18.8214H18.3604C19.1411 18.8214 19.7764 18.1861 19.7764 17.4054V15.5594C19.7764 15.1549 19.4484 14.827 19.0439 14.827ZM21.9736 23.2159H37.5967C38.0013 23.2159 38.3291 22.888 38.3291 22.4835C38.3291 22.079 38.0013 21.7511 37.5967 21.7511H21.9736C21.5691 21.7511 21.2412 22.079 21.2412 22.4835C21.2412 22.888 21.5691 23.2159 21.9736 23.2159ZM21.9736 15.1104H37.5967C38.0013 15.1104 38.3291 14.7825 38.3291 14.378C38.3291 13.9735 38.0013 13.6456 37.5967 13.6456H21.9736C21.5691 13.6456 21.2412 13.9735 21.2412 14.378C21.2412 14.7825 21.5691 15.1104 21.9736 15.1104ZM21.9736 12.1808H37.5967C38.0013 12.1808 38.3291 11.8528 38.3291 11.4483C38.3291 11.0438 38.0013 10.7159 37.5967 10.7159H21.9736C21.5691 10.7159 21.2412 11.0438 21.2412 11.4483C21.2412 11.8528 21.5691 12.1808 21.9736 12.1808ZM21.9736 26.1456H37.5967C38.0013 26.1456 38.3291 25.8177 38.3291 25.4132C38.3291 25.0087 38.0013 24.6808 37.5967 24.6808H21.9736C21.5691 24.6808 21.2412 25.0087 21.2412 25.4132C21.2412 25.8177 21.5691 26.1456 21.9736 26.1456Z" fill="#FF0000"/>
</g>
<defs>
<clipPath id="clip0_1_39">
<rect width="50" height="50" fill="white"/>
</clipPath>
</defs>
</svg>
